<svg xmlns="http://www.w3.org/2000/svg" viewBox="0 0 410 512" width="410" height="512"><defs><pattern id="tr" width="40" height="40" patternUnits="userSpaceOnUse"><path d="M0 10 H18 L28 20 H40 M10 0 V8 L20 18 V40 M30 40 V30 L36 24" stroke="#2c4235" stroke-width="1.3" fill="none"/></pattern><pattern id="pins" width="4" height="4" patternUnits="userSpaceOnUse"><circle cx="2" cy="2" r="0.9" fill="#c9a94b"/></pattern></defs><rect width="410" height="512" rx="8" fill="#1c2820"/><rect width="410" height="512" rx="8" fill="url(#tr)" opacity=".8"/><circle cx="12" cy="12" r="6" fill="#0d120f" stroke="#b8a46a" stroke-width="2"/><circle cx="200" cy="12" r="6" fill="#0d120f" stroke="#b8a46a" stroke-width="2"/><circle cx="396" cy="12" r="6" fill="#0d120f" stroke="#b8a46a" stroke-width="2"/><circle cx="12" cy="300" r="6" fill="#0d120f" stroke="#b8a46a" stroke-width="2"/><circle cx="396" cy="300" r="6" fill="#0d120f" stroke="#b8a46a" stroke-width="2"/><circle cx="12" cy="500" r="6" fill="#0d120f" stroke="#b8a46a" stroke-width="2"/><circle cx="200" cy="500" r="6" fill="#0d120f" stroke="#b8a46a" stroke-width="2"/><circle cx="396" cy="500" r="6" fill="#0d120f" stroke="#b8a46a" stroke-width="2"/><rect x="0" y="10" width="60" height="180" rx="2" fill="#8d959e"/><rect x="0" y="10" width="60" height="180" rx="2" fill="none" stroke="#6b737c"/><rect x="10" y="22" width="30" height="11" rx="1.5" fill="#1d2b5a"/><rect x="13" y="25" width="24" height="3" fill="#c9ced3"/><rect x="10" y="40" width="30" height="11" rx="1.5" fill="#1d2b5a"/><rect x="13" y="43" width="24" height="3" fill="#c9ced3"/><rect x="10" y="58" width="30" height="11" rx="1.5" fill="#1d2b5a"/><rect x="13" y="61" width="24" height="3" fill="#c9ced3"/><rect x="10" y="76" width="30" height="11" rx="1.5" fill="#1d2b5a"/><rect x="13" y="79" width="24" height="3" fill="#c9ced3"/><rect x="10" y="94" width="30" height="11" rx="1.5" fill="#1d2b5a"/><rect x="13" y="97" width="24" height="3" fill="#c9ced3"/><rect x="10" y="112" width="30" height="11" rx="1.5" fill="#1d2b5a"/><rect x="13" y="115" width="24" height="3" fill="#c9ced3"/><rect x="10" y="128" width="34" height="16" rx="2" fill="#222"/><rect x="14" y="132" width="26" height="8" fill="#444"/><path d="M12 150 H44 V162 L40 166 H16 L12 162 Z" fill="#111"/><rect x="16" y="154" width="24" height="6" fill="#3a3a3a"/><text x="30" y="176" fill="#2b3036" font-family="Arial, Helvetica, sans-serif" font-size="7" text-anchor="middle">HDMI</text><rect x="66" y="4" width="50" height="18" rx="2" fill="#ededed" stroke="#9aa3ac"/><rect x="70.0" y="6.5" width="7" height="5.5" rx="1" fill="#555"/><rect x="70.0" y="14.0" width="7" height="5.5" rx="1" fill="#555"/><rect x="81.5" y="6.5" width="7" height="5.5" rx="1" fill="#555"/><rect x="81.5" y="14.0" width="7" height="5.5" rx="1" fill="#555"/><rect x="93.0" y="6.5" width="7" height="5.5" rx="1" fill="#555"/><rect x="93.0" y="14.0" width="7" height="5.5" rx="1" fill="#555"/><rect x="104.5" y="6.5" width="7" height="5.5" rx="1" fill="#555"/><rect x="104.5" y="14.0" width="7" height="5.5" rx="1" fill="#555"/><text x="122" y="16" fill="#c8d6cc" font-family="Arial, Helvetica, sans-serif" font-size="7.5">CPU_PWR</text><rect x="124" y="26" width="136" height="36" rx="4" fill="#59636e"/><line x1="132.0" y1="30" x2="132.0" y2="58" stroke="#46505a" stroke-width="2"/><line x1="142.5" y1="30" x2="142.5" y2="58" stroke="#46505a" stroke-width="2"/><line x1="153.0" y1="30" x2="153.0" y2="58" stroke="#46505a" stroke-width="2"/><line x1="163.5" y1="30" x2="163.5" y2="58" stroke="#46505a" stroke-width="2"/><line x1="174.0" y1="30" x2="174.0" y2="58" stroke="#46505a" stroke-width="2"/><line x1="184.5" y1="30" x2="184.5" y2="58" stroke="#46505a" stroke-width="2"/><line x1="195.0" y1="30" x2="195.0" y2="58" stroke="#46505a" stroke-width="2"/><line x1="205.5" y1="30" x2="205.5" y2="58" stroke="#46505a" stroke-width="2"/><line x1="216.0" y1="30" x2="216.0" y2="58" stroke="#46505a" stroke-width="2"/><line x1="226.5" y1="30" x2="226.5" y2="58" stroke="#46505a" stroke-width="2"/><line x1="237.0" y1="30" x2="237.0" y2="58" stroke="#46505a" stroke-width="2"/><line x1="247.5" y1="30" x2="247.5" y2="58" stroke="#46505a" stroke-width="2"/><rect x="72" y="66" width="44" height="134" rx="4" fill="#59636e"/><line x1="76" y1="74.0" x2="112" y2="74.0" stroke="#46505a" stroke-width="2"/><line x1="76" y1="85.5" x2="112" y2="85.5" stroke="#46505a" stroke-width="2"/><line x1="76" y1="97.0" x2="112" y2="97.0" stroke="#46505a" stroke-width="2"/><line x1="76" y1="108.5" x2="112" y2="108.5" stroke="#46505a" stroke-width="2"/><line x1="76" y1="120.0" x2="112" y2="120.0" stroke="#46505a" stroke-width="2"/><line x1="76" y1="131.5" x2="112" y2="131.5" stroke="#46505a" stroke-width="2"/><line x1="76" y1="143.0" x2="112" y2="143.0" stroke="#46505a" stroke-width="2"/><line x1="76" y1="154.5" x2="112" y2="154.5" stroke="#46505a" stroke-width="2"/><line x1="76" y1="166.0" x2="112" y2="166.0" stroke="#46505a" stroke-width="2"/><line x1="76" y1="177.5" x2="112" y2="177.5" stroke="#46505a" stroke-width="2"/><line x1="76" y1="189.0" x2="112" y2="189.0" stroke="#46505a" stroke-width="2"/><circle cx="124" cy="62" r="4" fill="#0d120f" stroke="#b8a46a" stroke-width="1.5"/><circle cx="246" cy="62" r="4" fill="#0d120f" stroke="#b8a46a" stroke-width="1.5"/><circle cx="124" cy="188" r="4" fill="#0d120f" stroke="#b8a46a" stroke-width="1.5"/><circle cx="246" cy="188" r="4" fill="#0d120f" stroke="#b8a46a" stroke-width="1.5"/><rect x="140" y="80" width="90" height="90" rx="4" fill="#b9bec4" stroke="#8d949b"/><rect x="150" y="90" width="70" height="70" fill="#262b30"/><rect x="152" y="92" width="66" height="66" fill="url(#pins)"/><line x1="234" y1="90" x2="234" y2="166" stroke="#d3d8dc" stroke-width="3" stroke-linecap="round"/><path d="M150 160 l8 0 l-8 -8 z" fill="#c9a94b"/><text x="185" y="183" fill="#c8d6cc" font-family="Arial, Helvetica, sans-serif" font-size="8" text-anchor="middle">LGA1700</text><text x="321" y="20" fill="#c8d6cc" font-family="Arial, Helvetica, sans-serif" font-size="8" text-anchor="middle">DDR5</text><rect x="285" y="30" width="12" height="260" rx="2" fill="#3a3f45"/><rect x="288" y="34" width="6" height="252" fill="#15191d"/><rect x="288" y="148" width="6" height="4" fill="#3a3f45"/><rect x="284" y="26" width="14" height="7" rx="1.5" fill="#d3d8dc"/><rect x="284" y="287" width="14" height="7" rx="1.5" fill="#d3d8dc"/><text x="291" y="304" fill="#c8d6cc" font-family="Arial, Helvetica, sans-serif" font-size="6.5" text-anchor="middle">A1</text><rect x="305" y="30" width="12" height="260" rx="2" fill="#8d98a5"/><rect x="308" y="34" width="6" height="252" fill="#15191d"/><rect x="308" y="148" width="6" height="4" fill="#8d98a5"/><rect x="304" y="26" width="14" height="7" rx="1.5" fill="#d3d8dc"/><rect x="304" y="287" width="14" height="7" rx="1.5" fill="#d3d8dc"/><text x="311" y="304" fill="#c8d6cc" font-family="Arial, Helvetica, sans-serif" font-size="6.5" text-anchor="middle">A2</text><rect x="325" y="30" width="12" height="260" rx="2" fill="#3a3f45"/><rect x="328" y="34" width="6" height="252" fill="#15191d"/><rect x="328" y="148" width="6" height="4" fill="#3a3f45"/><rect x="324" y="26" width="14" height="7" rx="1.5" fill="#d3d8dc"/><rect x="324" y="287" width="14" height="7" rx="1.5" fill="#d3d8dc"/><text x="331" y="304" fill="#c8d6cc" font-family="Arial, Helvetica, sans-serif" font-size="6.5" text-anchor="middle">B1</text><rect x="345" y="30" width="12" height="260" rx="2" fill="#8d98a5"/><rect x="348" y="34" width="6" height="252" fill="#15191d"/><rect x="348" y="148" width="6" height="4" fill="#8d98a5"/><rect x="344" y="26" width="14" height="7" rx="1.5" fill="#d3d8dc"/><rect x="344" y="287" width="14" height="7" rx="1.5" fill="#d3d8dc"/><text x="351" y="304" fill="#c8d6cc" font-family="Arial, Helvetica, sans-serif" font-size="6.5" text-anchor="middle">B2</text><rect x="380" y="160" width="22" height="90" rx="2" fill="#ededed" stroke="#9aa3ac"/><rect x="383" y="163.0" width="6.5" height="5" rx="1" fill="#555"/><rect x="392" y="163.0" width="6.5" height="5" rx="1" fill="#555"/><rect x="383" y="170.2" width="6.5" height="5" rx="1" fill="#555"/><rect x="392" y="170.2" width="6.5" height="5" rx="1" fill="#555"/><rect x="383" y="177.4" width="6.5" height="5" rx="1" fill="#555"/><rect x="392" y="177.4" width="6.5" height="5" rx="1" fill="#555"/><rect x="383" y="184.6" width="6.5" height="5" rx="1" fill="#555"/><rect x="392" y="184.6" width="6.5" height="5" rx="1" fill="#555"/><rect x="383" y="191.8" width="6.5" height="5" rx="1" fill="#555"/><rect x="392" y="191.8" width="6.5" height="5" rx="1" fill="#555"/><rect x="383" y="199.0" width="6.5" height="5" rx="1" fill="#555"/><rect x="392" y="199.0" width="6.5" height="5" rx="1" fill="#555"/><rect x="383" y="206.2" width="6.5" height="5" rx="1" fill="#555"/><rect x="392" y="206.2" width="6.5" height="5" rx="1" fill="#555"/><rect x="383" y="213.4" width="6.5" height="5" rx="1" fill="#555"/><rect x="392" y="213.4" width="6.5" height="5" rx="1" fill="#555"/><rect x="383" y="220.6" width="6.5" height="5" rx="1" fill="#555"/><rect x="392" y="220.6" width="6.5" height="5" rx="1" fill="#555"/><rect x="383" y="227.8" width="6.5" height="5" rx="1" fill="#555"/><rect x="392" y="227.8" width="6.5" height="5" rx="1" fill="#555"/><rect x="383" y="235.0" width="6.5" height="5" rx="1" fill="#555"/><rect x="392" y="235.0" width="6.5" height="5" rx="1" fill="#555"/><rect x="383" y="242.2" width="6.5" height="5" rx="1" fill="#555"/><rect x="392" y="242.2" width="6.5" height="5" rx="1" fill="#555"/><text x="374" y="205" fill="#c8d6cc" font-family="Arial, Helvetica, sans-serif" font-size="7.5" text-anchor="middle" transform="rotate(-90 374 205)">ATX_PWR</text><rect x="387" y="261" width="12" height="8" rx="1.5" fill="#3b3f44"/><text x="383" y="268" fill="#c8d6cc" font-family="Arial, Helvetica, sans-serif" font-size="6.5" text-anchor="end">CPU</text><rect x="387" y="277" width="12" height="8" rx="1.5" fill="#3b3f44"/><text x="383" y="284" fill="#c8d6cc" font-family="Arial, Helvetica, sans-serif" font-size="6.5" text-anchor="end">DRAM</text><rect x="387" y="293" width="12" height="8" rx="1.5" fill="#3b3f44"/><text x="383" y="300" fill="#c8d6cc" font-family="Arial, Helvetica, sans-serif" font-size="6.5" text-anchor="end">VGA</text><rect x="387" y="309" width="12" height="8" rx="1.5" fill="#3b3f44"/><text x="383" y="316" fill="#c8d6cc" font-family="Arial, Helvetica, sans-serif" font-size="6.5" text-anchor="end">BOOT</text><rect x="90" y="256" width="180" height="22" rx="2" fill="none" stroke="#c8d6cc" stroke-width="1" stroke-dasharray="3 3"/><rect x="88" y="254" width="12" height="26" rx="1.5" fill="#15181b"/><circle cx="268" cy="267" r="4.5" fill="#b8a46a"/><circle cx="268" cy="267" r="1.8" fill="#6d5a25"/><text x="180" y="292" fill="#c8d6cc" font-family="Arial, Helvetica, sans-serif" font-size="8" text-anchor="middle">M.2_1</text><rect x="50" y="320" width="290" height="14" rx="2" fill="#2a2d31" stroke="#aab2bb" stroke-width="1.5"/><rect x="56" y="325" width="278" height="4" fill="#111"/><text x="195" y="346" fill="#c8d6cc" font-family="Arial, Helvetica, sans-serif" font-size="8" text-anchor="middle">PCIE_X16</text><rect x="50" y="380" width="60" height="10" rx="1.5" fill="#2a2d31"/><rect x="50" y="440" width="290" height="12" rx="2" fill="#2a2d31"/><rect x="236" y="400" width="96" height="66" rx="6" fill="#59636e"/><line x1="246" y1="406" x2="246" y2="460" stroke="#46505a" stroke-width="2"/><line x1="261" y1="406" x2="261" y2="460" stroke="#46505a" stroke-width="2"/><line x1="276" y1="406" x2="276" y2="460" stroke="#46505a" stroke-width="2"/><line x1="291" y1="406" x2="291" y2="460" stroke="#46505a" stroke-width="2"/><line x1="306" y1="406" x2="306" y2="460" stroke="#46505a" stroke-width="2"/><line x1="321" y1="406" x2="321" y2="460" stroke="#46505a" stroke-width="2"/><text x="395" y="374" fill="#c8d6cc" font-family="Arial, Helvetica, sans-serif" font-size="7" text-anchor="middle">SATA</text><rect x="386" y="381" width="18" height="10" rx="1.5" fill="#15181b"/><rect x="389" y="384" width="10" height="3" fill="#444"/><rect x="386" y="393" width="18" height="10" rx="1.5" fill="#15181b"/><rect x="389" y="396" width="10" height="3" fill="#444"/><rect x="386" y="405" width="18" height="10" rx="1.5" fill="#15181b"/><rect x="389" y="408" width="10" height="3" fill="#444"/><rect x="386" y="417" width="18" height="10" rx="1.5" fill="#15181b"/><rect x="389" y="420" width="10" height="3" fill="#444"/><circle cx="140" cy="475" r="15" fill="#c3c9cf" stroke="#8d949b" stroke-width="2"/><text x="140" y="478" fill="#5b636b" font-family="Arial, Helvetica, sans-serif" font-size="7" text-anchor="middle">CR2032</text><rect x="330" y="486" width="50" height="16" rx="1.5" fill="#15181b"/><circle cx="336.0" cy="490" r="1.8" fill="#c9a94b"/><circle cx="336.0" cy="498" r="1.8" fill="#c9a94b"/><circle cx="345.5" cy="490" r="1.8" fill="#c9a94b"/><circle cx="345.5" cy="498" r="1.8" fill="#c9a94b"/><circle cx="355.0" cy="490" r="1.8" fill="#c9a94b"/><circle cx="355.0" cy="498" r="1.8" fill="#c9a94b"/><circle cx="364.5" cy="490" r="1.8" fill="#c9a94b"/><circle cx="364.5" cy="498" r="1.8" fill="#c9a94b"/><circle cx="374.0" cy="490" r="1.8" fill="#c9a94b"/><circle cx="374.0" cy="498" r="1.8" fill="#c9a94b"/><text x="355" y="481" fill="#c8d6cc" font-family="Arial, Helvetica, sans-serif" font-size="7" text-anchor="middle">F_PANEL</text><text x="220" y="506" fill="#c8d6cc" font-family="Arial, Helvetica, sans-serif" font-size="10" font-weight="700" text-anchor="middle" letter-spacing="1">GB-790 ATX</text></svg>
